<?xml version="1.0" encoding="utf-8"?>
<!-- Generator: Adobe Illustrator 19.0.0, SVG Export Plug-In . SVG Version: 6.00 Build 0)  -->
<svg version="1.1" id="Layer_1" xmlns="http://www.w3.org/2000/svg" xmlns:xlink="http://www.w3.org/1999/xlink" x="0px" y="0px"
	 viewBox="0 0 72.4 43.5" style="enable-background:new 0 0 72.4 43.5;" xml:space="preserve">
<style type="text/css">
	.st0{fill:#FFFFFF;}
	.st1{fill:none;stroke:#FFFFFF;stroke-width:2;stroke-linejoin:round;stroke-miterlimit:10;}
</style>
<g id="XMLID_188_">
	<g id="XMLID_70_">
		<path id="XMLID_71_" class="st0" d="M16,16.6c-1,0.6-2.2,0.9-3.6,0.9H8.8V4h3.3c1.4,0,2.5,0.3,3.4,0.8c0.9,0.5,1.4,1.4,1.4,2.6
			c0,0.8-0.2,1.5-0.7,1.9c-0.5,0.5-1.1,0.8-1.8,1c2.1,0.4,3.1,1.5,3.1,3.3C17.5,15,17,16,16,16.6z M14.5,5.9c-0.5-0.3-1.1-0.5-2-0.5
			h-2v4.3h2.2c1.7,0,2.5-0.7,2.5-2.2C15.2,6.8,14.9,6.2,14.5,5.9z M14.9,11.7c-0.5-0.4-1.2-0.6-2.1-0.6h-2.3v4.9h2.2
			c0.8,0,1.5-0.2,2.1-0.5c0.6-0.3,0.9-1,0.9-1.9C15.7,12.8,15.4,12.1,14.9,11.7z"/>
		<path id="XMLID_75_" class="st0" d="M24.6,14.9c0,0.9,0.6,1.4,1.7,1.4c0.5,0,1.1-0.1,1.7-0.4l0.4,1.2c-0.7,0.4-1.5,0.5-2.4,0.5
			c-0.9,0-1.7-0.3-2.2-0.8c-0.6-0.5-0.8-1.2-0.8-2.1V4.4h-3.2V3.1h4.8V14.9z"/>
		<path id="XMLID_77_" class="st0" d="M39.9,16.1c0.1,0.2,0.3,0.3,0.6,0.4l-0.4,1.2c-1-0.1-1.6-0.6-1.9-1.5
			c-0.4,0.5-0.8,0.8-1.4,1.1c-0.6,0.2-1.2,0.4-1.8,0.4c-1,0-1.8-0.3-2.4-0.9c-0.6-0.6-0.9-1.3-0.9-2.3c0-1.1,0.4-1.9,1.2-2.4
			c0.8-0.6,2-0.9,3.6-0.9H38v-0.8c0-0.7-0.2-1.3-0.6-1.6c-0.4-0.3-1-0.5-1.8-0.5c-0.8,0-1.7,0.2-2.7,0.5l-0.4-1.2
			C33.7,7.2,34.8,7,35.9,7c1.2,0,2.2,0.3,2.9,0.9c0.7,0.6,1,1.4,1,2.4v4.9C39.7,15.6,39.8,15.9,39.9,16.1z M36.9,16.1
			c0.5-0.3,0.8-0.6,1.1-1.1v-2.6h-1.5c-1.1,0-1.9,0.2-2.4,0.5c-0.5,0.4-0.7,0.9-0.7,1.6c0,1.3,0.7,2,2,2
			C35.9,16.5,36.4,16.3,36.9,16.1z"/>
		<path id="XMLID_80_" class="st0" d="M44,7.2h1.4l0.1,1.4c0.4-0.5,0.9-0.9,1.5-1.2C47.7,7.1,48.3,7,49,7c1.9,0,2.9,1,2.9,3v7.5
			h-1.6v-6.2c0-0.8,0-1.4-0.1-1.8c-0.1-0.4-0.3-0.7-0.5-0.9c-0.2-0.2-0.6-0.3-1.1-0.3c-0.6,0-1.1,0.2-1.6,0.5
			C46.4,9.1,46,9.5,45.7,10v7.5H44V7.2z"/>
		<path id="XMLID_82_" class="st0" d="M57.5,17.5h-1.6V3.1l1.6-0.2V17.5z M59.7,11.8l5.2,5.6h-2.2l-5.1-5.6l4.6-4.7h2.1L59.7,11.8z"
			/>
	</g>
	<g id="XMLID_1_">
		<path id="XMLID_5_" class="st0" d="M16.8,30.7c-0.4,0.6-1,1.1-1.7,1.4c-0.7,0.3-1.6,0.5-2.6,0.5c-1,0-1.9-0.1-2.7-0.4
			c-0.8-0.3-1.5-0.7-2.1-1.3l1-1.2c0.5,0.5,1,0.8,1.6,1.1c0.6,0.2,1.3,0.4,2.1,0.4c0.9,0,1.6-0.2,2.2-0.6c0.6-0.4,0.9-1,0.9-1.9
			c0-0.5-0.1-0.8-0.3-1.1c-0.2-0.3-0.5-0.6-0.9-0.8c-0.4-0.2-1-0.5-1.8-0.7c-1.5-0.4-2.5-0.9-3.3-1.5c-0.7-0.6-1.1-1.4-1.1-2.4
			c0-0.7,0.2-1.3,0.5-1.8c0.4-0.5,0.9-0.9,1.5-1.2c0.7-0.3,1.4-0.4,2.3-0.4c0.9,0,1.7,0.1,2.4,0.4c0.7,0.3,1.3,0.6,1.9,1.2l-1,1.1
			c-0.9-0.8-2-1.2-3.2-1.2c-0.8,0-1.4,0.2-1.9,0.5c-0.5,0.3-0.8,0.8-0.8,1.5c0,0.4,0.1,0.7,0.3,1c0.2,0.3,0.6,0.5,1,0.8
			s1.2,0.5,2,0.7c1.3,0.4,2.2,0.8,2.9,1.4c0.7,0.6,1,1.5,1,2.6C17.4,29.5,17.2,30.1,16.8,30.7z"/>
		<path id="XMLID_59_" class="st0" d="M28.9,27.3c0,1.6-0.3,2.9-1,3.9c-0.7,1-1.7,1.5-2.9,1.5c-1.1,0-2-0.4-2.7-1.2v4.9l-1.6,0.2
			V22.1H22l0.1,1.4c0.4-0.5,0.8-0.9,1.4-1.2c0.5-0.3,1.1-0.4,1.7-0.4C27.7,21.9,28.9,23.7,28.9,27.3z M23.4,23.7
			c-0.4,0.3-0.8,0.7-1.1,1.2V30c0.3,0.4,0.6,0.7,1,0.9c0.4,0.2,0.9,0.3,1.3,0.3c0.9,0,1.5-0.3,1.9-1c0.4-0.7,0.6-1.7,0.6-3
			c0-1.4-0.2-2.4-0.6-3c-0.4-0.7-1-1-1.8-1C24.3,23.2,23.8,23.4,23.4,23.7z"/>
		<path id="XMLID_62_" class="st0" d="M39.9,31c0.1,0.2,0.3,0.3,0.6,0.4l-0.4,1.2c-1-0.1-1.6-0.6-1.9-1.5c-0.4,0.5-0.8,0.8-1.4,1.1
			c-0.6,0.2-1.2,0.4-1.8,0.4c-1,0-1.8-0.3-2.4-0.9c-0.6-0.6-0.9-1.3-0.9-2.3c0-1.1,0.4-1.9,1.2-2.4c0.8-0.6,2-0.9,3.6-0.9H38v-0.8
			c0-0.7-0.2-1.3-0.6-1.6c-0.4-0.3-1-0.5-1.8-0.5c-0.8,0-1.7,0.2-2.7,0.5l-0.4-1.2c1.2-0.4,2.3-0.6,3.4-0.6c1.2,0,2.2,0.3,2.9,0.9
			c0.7,0.6,1,1.4,1,2.4v4.9C39.7,30.6,39.8,30.9,39.9,31z M36.9,31c0.5-0.3,0.8-0.6,1.1-1.1v-2.6h-1.5c-1.1,0-1.9,0.2-2.4,0.5
			c-0.5,0.4-0.7,0.9-0.7,1.6c0,1.3,0.7,2,2,2C35.9,31.4,36.4,31.3,36.9,31z"/>
		<path id="XMLID_65_" class="st0" d="M51.4,30.3l0.8,1.1c-0.4,0.4-1,0.7-1.6,0.9c-0.6,0.2-1.3,0.3-1.9,0.3c-1.5,0-2.7-0.5-3.6-1.4
			c-0.9-1-1.3-2.2-1.3-3.9c0-1,0.2-2,0.6-2.8c0.4-0.8,0.9-1.5,1.7-1.9c0.7-0.5,1.6-0.7,2.6-0.7c1.3,0,2.5,0.4,3.4,1.2l-0.8,1.1
			c-0.9-0.6-1.8-0.9-2.7-0.9c-0.9,0-1.7,0.3-2.2,1c-0.6,0.7-0.8,1.7-0.8,3c0,1.3,0.3,2.3,0.8,2.9c0.6,0.6,1.3,1,2.2,1
			C49.6,31.2,50.5,30.9,51.4,30.3z"/>
		<path id="XMLID_67_" class="st0" d="M57.9,30.4c0.6,0.6,1.3,0.9,2.1,0.9c0.5,0,1-0.1,1.4-0.2c0.4-0.1,0.9-0.4,1.4-0.7l0.8,1.1
			c-0.5,0.4-1,0.7-1.6,0.9c-0.6,0.2-1.2,0.3-1.9,0.3c-1.5,0-2.6-0.5-3.5-1.5c-0.8-1-1.2-2.3-1.2-3.9c0-1,0.2-1.9,0.5-2.8
			c0.4-0.8,0.9-1.5,1.6-1.9c0.7-0.5,1.5-0.7,2.4-0.7c1.3,0,2.3,0.5,3.1,1.4c0.7,0.9,1.1,2.1,1.1,3.7c0,0.3,0,0.6,0,0.9H57
			C57.1,29,57.4,29.8,57.9,30.4z M57.9,24.1c-0.5,0.6-0.8,1.4-0.8,2.5h5.3c0-1.1-0.2-1.9-0.7-2.5c-0.5-0.6-1.1-0.9-1.9-0.9
			C59,23.2,58.4,23.5,57.9,24.1z"/>
	</g>
	<path id="XMLID_4_" class="st1" d="M6.2,33.6c0,2.3,0,6.9,0,6.9h59.7v-6.9"/>
</g>
</svg>
